<?xml version="1.0" encoding="utf-8"?>
<!-- Generator: Adobe Illustrator 18.0.0, SVG Export Plug-In . SVG Version: 6.00 Build 0)  -->
<!DOCTYPE svg PUBLIC "-//W3C//DTD SVG 1.1//EN" "http://www.w3.org/Graphics/SVG/1.1/DTD/svg11.dtd">
<svg version="1.1" id="Layer_2" xmlns="http://www.w3.org/2000/svg" xmlns:xlink="http://www.w3.org/1999/xlink" x="0px" y="0px"
	 viewBox="0 0 600 600" enable-background="new 0 0 600 600" xml:space="preserve">
<line fill="none" stroke="#000000" stroke-width="3" stroke-miterlimit="10" x1="266" y1="551.9" x2="147" y2="481.8"/>
<line fill="none" stroke="#000000" stroke-width="3" stroke-miterlimit="10" x1="147" y1="481.8" x2="147" y2="187.3"/>
<line fill="none" stroke="#000000" stroke-width="3" stroke-miterlimit="10" x1="147" y1="187.4" x2="266" y2="256.1"/>
<line fill="none" stroke="#000000" stroke-width="3" stroke-miterlimit="10" x1="266" y1="256.1" x2="266" y2="550.5"/>
<line fill="none" stroke="#000000" stroke-width="3" stroke-miterlimit="10" x1="266" y1="551.9" x2="453" y2="442.6"/>
<line fill="none" stroke="#000000" stroke-width="3" stroke-miterlimit="10" x1="266" y1="256.1" x2="453" y2="148.1"/>
<line fill="none" stroke="#000000" stroke-width="3" stroke-miterlimit="10" x1="453" y1="148.1" x2="453" y2="442.6"/>
<line fill="none" stroke="#000000" stroke-width="3" stroke-miterlimit="10" x1="147" y1="187.4" x2="334" y2="79.4"/>
<line fill="none" stroke="#000000" stroke-width="3" stroke-miterlimit="10" x1="334" y1="79.4" x2="453" y2="148.1"/>
<line fill="none" stroke="#000000" stroke-width="3" stroke-miterlimit="10" x1="96" y1="157.9" x2="130" y2="177.6"/>
<line fill="none" stroke="#000000" stroke-width="3" stroke-miterlimit="10" x1="113" y1="167.7" x2="300" y2="59.8"/>
<line fill="none" stroke="#000000" stroke-width="3" stroke-miterlimit="10" x1="283" y1="50" x2="317" y2="69.6"/>
<line fill="none" stroke="#000000" stroke-width="3" stroke-miterlimit="10" x1="351" y1="69.6" x2="385" y2="50"/>
<line fill="none" stroke="#000000" stroke-width="3" stroke-miterlimit="10" x1="368" y1="59.8" x2="487" y2="128.5"/>
<line fill="none" stroke="#000000" stroke-width="3" stroke-miterlimit="10" x1="470" y1="138.3" x2="504" y2="118.7"/>
<line fill="none" stroke="#000000" stroke-width="3" stroke-miterlimit="10" x1="487" y1="128.5" x2="487" y2="422.9"/>
<line fill="none" stroke="#000000" stroke-width="3" stroke-miterlimit="10" x1="468" y1="432.8" x2="502" y2="413.1"/>
<line fill="none" stroke="#000000" stroke-width="3" stroke-miterlimit="10" x1="155.5" y1="310" x2="155.7" y2="388.7"/>
<line fill="none" stroke="#000000" stroke-width="3" stroke-miterlimit="10" x1="155.7" y1="388.7" x2="181.1" y2="403.3"/>
<line fill="none" stroke="#000000" stroke-width="3" stroke-miterlimit="10" x1="181.1" y1="324.8" x2="181.1" y2="403.3"/>
<line fill="none" stroke="#000000" stroke-width="3" stroke-miterlimit="10" x1="181.1" y1="324.8" x2="155.5" y2="310"/>
<line fill="none" stroke="#000000" stroke-width="3" stroke-miterlimit="10" x1="164.1" y1="315" x2="164.1" y2="393.5"/>
<line fill="none" stroke="#000000" stroke-width="3" stroke-miterlimit="10" x1="215" y1="265.9" x2="215" y2="294.2"/>
<line fill="none" stroke="#000000" stroke-width="3" stroke-miterlimit="10" x1="214.1" y1="294.2" x2="249" y2="313.8"/>
<line fill="none" stroke="#000000" stroke-width="3" stroke-miterlimit="10" x1="249" y1="313.8" x2="249" y2="285.5"/>
<line fill="none" stroke="#000000" stroke-width="3" stroke-miterlimit="10" x1="249" y1="285.5" x2="214.1" y2="265.9"/>
<ellipse transform="matrix(0.9996 -2.919480e-002 2.919480e-002 0.9996 -10.249 4.8104)" fill="none" stroke="#000000" stroke-width="3" stroke-miterlimit="10" cx="159.6" cy="353.4" rx="3.9" ry="5.5"/>
<text transform="matrix(0.75 -0.433 0 1 492.8921 288.8408)" font-family="'Roboto-Regular'" font-size="24.2487">56 cm</text>
<text transform="matrix(0.75 -0.433 0.866 0.5 444.5004 92.5978)" font-family="'Roboto-Regular'" font-size="24.2487">28 cm</text>
<text transform="matrix(0.75 -0.433 0.866 0.5 185.8662 111.9506)" font-family="'Roboto-Regular'" font-size="24.2487">45 cm</text>
<line fill="none" stroke="#000000" stroke-width="3" stroke-miterlimit="10" x1="180.1" y1="422.9" x2="207.4" y2="438.2"/>
<line fill="none" stroke="#000000" stroke-width="3" stroke-miterlimit="10" x1="222.2" y1="446.8" x2="249.5" y2="462"/>
<line fill="none" stroke="#000000" stroke-width="3" stroke-miterlimit="10" x1="180.3" y1="442.7" x2="207.6" y2="457.9"/>
<line fill="none" stroke="#000000" stroke-width="3" stroke-miterlimit="10" x1="222.4" y1="466.5" x2="249.7" y2="481.7"/>
<line fill="none" stroke="#000000" stroke-width="3" stroke-miterlimit="10" x1="180.3" y1="462" x2="207.6" y2="477.3"/>
<line fill="none" stroke="#000000" stroke-width="3" stroke-miterlimit="10" x1="222.4" y1="485.9" x2="249.7" y2="501.1"/>
</svg>
