<?xml version="1.0" encoding="utf-8"?>
<!-- Generator: Adobe Illustrator 18.0.0, SVG Export Plug-In . SVG Version: 6.00 Build 0)  -->
<!DOCTYPE svg PUBLIC "-//W3C//DTD SVG 1.1//EN" "http://www.w3.org/Graphics/SVG/1.1/DTD/svg11.dtd">
<svg version="1.1" id="Layer_2" xmlns="http://www.w3.org/2000/svg" xmlns:xlink="http://www.w3.org/1999/xlink" x="0px" y="0px"
	 viewBox="0 0 600 600" enable-background="new 0 0 600 600" xml:space="preserve">
<line fill="none" stroke="#000000" stroke-width="3" stroke-miterlimit="10" x1="249" y1="542" x2="164" y2="490.7"/>
<line fill="none" stroke="#000000" stroke-width="3" stroke-miterlimit="10" x1="164" y1="492.8" x2="164" y2="198.3"/>
<line fill="none" stroke="#000000" stroke-width="3" stroke-miterlimit="10" x1="164" y1="197.1" x2="249" y2="246.1"/>
<line fill="none" stroke="#000000" stroke-width="3" stroke-miterlimit="10" x1="249" y1="246.1" x2="249" y2="540.6"/>
<line fill="none" stroke="#000000" stroke-width="3" stroke-miterlimit="10" x1="249" y1="542" x2="436" y2="432.6"/>
<line fill="none" stroke="#000000" stroke-width="3" stroke-miterlimit="10" x1="249" y1="246.1" x2="436" y2="138.2"/>
<line fill="none" stroke="#000000" stroke-width="3" stroke-miterlimit="10" x1="436" y1="138.2" x2="436" y2="432.6"/>
<line fill="none" stroke="#000000" stroke-width="3" stroke-miterlimit="10" x1="164.1" y1="198.3" x2="351.1" y2="90.4"/>
<line fill="none" stroke="#000000" stroke-width="3" stroke-miterlimit="10" x1="351.1" y1="90.4" x2="436" y2="138.2"/>
<line fill="none" stroke="#000000" stroke-width="3" stroke-miterlimit="10" x1="113" y1="168.9" x2="147" y2="188.5"/>
<line fill="none" stroke="#000000" stroke-width="3" stroke-miterlimit="10" x1="130" y1="178.7" x2="317" y2="70.7"/>
<line fill="none" stroke="#000000" stroke-width="3" stroke-miterlimit="10" x1="297.9" y1="59.7" x2="331.9" y2="79.3"/>
<line fill="none" stroke="#000000" stroke-width="3" stroke-miterlimit="10" x1="368" y1="80.5" x2="402" y2="60.9"/>
<line fill="none" stroke="#000000" stroke-width="3" stroke-miterlimit="10" x1="386.1" y1="70.1" x2="470" y2="118.5"/>
<line fill="none" stroke="#000000" stroke-width="3" stroke-miterlimit="10" x1="453" y1="128.4" x2="487" y2="108.7"/>
<line fill="none" stroke="#000000" stroke-width="3" stroke-miterlimit="10" x1="470" y1="118.5" x2="470" y2="413"/>
<line fill="none" stroke="#000000" stroke-width="3" stroke-miterlimit="10" x1="451" y1="422.8" x2="485" y2="403.2"/>
<line fill="none" stroke="#000000" stroke-width="3" stroke-miterlimit="10" x1="172.4" y1="321" x2="172.6" y2="399.6"/>
<line fill="none" stroke="#000000" stroke-width="3" stroke-miterlimit="10" x1="172.6" y1="399.6" x2="189.7" y2="409.1"/>
<line fill="none" stroke="#000000" stroke-width="3" stroke-miterlimit="10" x1="189.7" y1="330.5" x2="189.7" y2="409.1"/>
<line fill="none" stroke="#000000" stroke-width="3" stroke-miterlimit="10" x1="189.7" y1="331" x2="172.4" y2="321"/>
<line fill="none" stroke="#000000" stroke-width="3" stroke-miterlimit="10" x1="181" y1="325.9" x2="181" y2="404.4"/>
<line fill="none" stroke="#000000" stroke-width="3" stroke-miterlimit="10" x1="198.4" y1="248.8" x2="198.4" y2="277.1"/>
<line fill="none" stroke="#000000" stroke-width="3" stroke-miterlimit="10" x1="197.6" y1="277.1" x2="232.4" y2="296.7"/>
<line fill="none" stroke="#000000" stroke-width="3" stroke-miterlimit="10" x1="232.4" y1="296.7" x2="232.4" y2="268.4"/>
<line fill="none" stroke="#000000" stroke-width="3" stroke-miterlimit="10" x1="232.4" y1="268.4" x2="197.6" y2="248.8"/>
<ellipse transform="matrix(0.9996 -2.919480e-002 2.919480e-002 0.9996 -10.5612 5.3085)" fill="none" stroke="#000000" stroke-width="3" stroke-miterlimit="10" cx="176.5" cy="364.3" rx="3.9" ry="5.5"/>
<text transform="matrix(0.75 -0.433 0 1 475.8921 278.8954)" font-family="'Roboto-Regular'" font-size="24.2487">84 cm</text>
<text transform="matrix(0.75 -0.433 0.866 0.5 447.1672 92.319)" font-family="'Roboto-Regular'" font-size="24.2487">28 cm</text>
<text transform="matrix(0.75 -0.433 0.866 0.5 203.5329 122.0053)" font-family="'Roboto-Regular'" font-size="24.2487">45 cm</text>
<line fill="none" stroke="#231F20" stroke-width="3" stroke-miterlimit="10" x1="197.6" y1="315.8" x2="232" y2="335.7"/>
<line fill="none" stroke="#231F20" stroke-width="3" stroke-miterlimit="10" x1="198" y1="306.3" x2="232.4" y2="325.8"/>
<line fill="none" stroke="#231F20" stroke-width="3" stroke-miterlimit="10" x1="232" y1="316.1" x2="198" y2="296.5"/>
<line fill="none" stroke="#231F20" stroke-width="3" stroke-miterlimit="10" x1="197.6" y1="286.7" x2="232" y2="306.3"/>
<line fill="none" stroke="#231F20" stroke-width="3" stroke-miterlimit="10" x1="197.3" y1="491.9" x2="231.8" y2="511.8"/>
<line fill="none" stroke="#231F20" stroke-width="3" stroke-miterlimit="10" x1="197.8" y1="482.4" x2="232.2" y2="501.9"/>
<line fill="none" stroke="#231F20" stroke-width="3" stroke-miterlimit="10" x1="231.8" y1="492.2" x2="197.8" y2="472.6"/>
<line fill="none" stroke="#231F20" stroke-width="3" stroke-miterlimit="10" x1="197.3" y1="462.8" x2="231.8" y2="482.4"/>
</svg>
