<?xml version="1.0" encoding="utf-8"?>
<!-- Generator: Adobe Illustrator 18.0.0, SVG Export Plug-In . SVG Version: 6.00 Build 0)  -->
<!DOCTYPE svg PUBLIC "-//W3C//DTD SVG 1.1//EN" "http://www.w3.org/Graphics/SVG/1.1/DTD/svg11.dtd">
<svg version="1.1" id="Layer_1" xmlns="http://www.w3.org/2000/svg" xmlns:xlink="http://www.w3.org/1999/xlink" x="0px" y="0px"
	 viewBox="0 0 600 600" enable-background="new 0 0 600 600" xml:space="preserve">
<g id="panel">
	<rect x="4.7" y="11.5" fill="none" stroke="#000000" stroke-width="4" stroke-miterlimit="10" width="295.5" height="576"/>
	<g id="column">
		<g id="cell">
			<rect x="12.1" y="26" fill="none" stroke="#000000" stroke-width="4" stroke-miterlimit="10" width="88.7" height="178"/>
			<rect x="17.1" y="98.4" fill="none" stroke="#000000" stroke-width="2" stroke-miterlimit="10" width="14.9" height="29.7"/>
			<ellipse fill="none" stroke="#000000" stroke-width="2" stroke-miterlimit="10" cx="20.6" cy="114.1" rx="2.5" ry="2.5"/>
			<line fill="none" stroke="#000000" stroke-width="2" stroke-miterlimit="10" x1="56.5" y1="183.1" x2="86.3" y2="183.1"/>
			<line fill="none" stroke="#000000" stroke-width="2" stroke-miterlimit="10" x1="56.5" y1="166.1" x2="86.3" y2="166.1"/>
			<line fill="none" stroke="#000000" stroke-width="2" stroke-miterlimit="10" x1="56.5" y1="174.8" x2="86.3" y2="174.8"/>
			<line fill="none" stroke="#000000" stroke-width="2" stroke-miterlimit="10" x1="60.3" y1="44.2" x2="86.8" y2="44.2"/>
			<line fill="none" stroke="#000000" stroke-width="2" stroke-miterlimit="10" x1="60.3" y1="58.4" x2="86.8" y2="58.4"/>
			<line fill="none" stroke="#000000" stroke-width="2" stroke-miterlimit="10" x1="24.6" y1="98.4" x2="24.6" y2="128.2"/>
		</g>
		<g id="cell_1_">
			<rect x="12.1" y="204" fill="none" stroke="#000000" stroke-width="4" stroke-miterlimit="10" width="88.7" height="178"/>
			<rect x="17.1" y="276.4" fill="none" stroke="#000000" stroke-width="2" stroke-miterlimit="10" width="14.9" height="29.7"/>
			<ellipse fill="none" stroke="#000000" stroke-width="2" stroke-miterlimit="10" cx="20.6" cy="292.1" rx="2.5" ry="2.5"/>
			<line fill="none" stroke="#000000" stroke-width="2" stroke-miterlimit="10" x1="56.5" y1="361.1" x2="86.3" y2="361.1"/>
			<line fill="none" stroke="#000000" stroke-width="2" stroke-miterlimit="10" x1="56.5" y1="344.1" x2="86.3" y2="344.1"/>
			<line fill="none" stroke="#000000" stroke-width="2" stroke-miterlimit="10" x1="56.5" y1="352.8" x2="86.3" y2="352.8"/>
			<line fill="none" stroke="#000000" stroke-width="2" stroke-miterlimit="10" x1="60.3" y1="222.2" x2="86.8" y2="222.2"/>
			<line fill="none" stroke="#000000" stroke-width="2" stroke-miterlimit="10" x1="60.3" y1="236.4" x2="86.8" y2="236.4"/>
			<line fill="none" stroke="#000000" stroke-width="2" stroke-miterlimit="10" x1="24.6" y1="276.4" x2="24.6" y2="306.2"/>
		</g>
		<g id="cell_2_">
			<rect x="12.1" y="382" fill="none" stroke="#000000" stroke-width="4" stroke-miterlimit="10" width="88.7" height="178"/>
			<rect x="17.1" y="454.4" fill="none" stroke="#000000" stroke-width="2" stroke-miterlimit="10" width="14.9" height="29.7"/>
			<ellipse fill="none" stroke="#000000" stroke-width="2" stroke-miterlimit="10" cx="20.6" cy="470.1" rx="2.5" ry="2.5"/>
			<line fill="none" stroke="#000000" stroke-width="2" stroke-miterlimit="10" x1="56.5" y1="539.1" x2="86.3" y2="539.1"/>
			<line fill="none" stroke="#000000" stroke-width="2" stroke-miterlimit="10" x1="56.5" y1="522.1" x2="86.3" y2="522.1"/>
			<line fill="none" stroke="#000000" stroke-width="2" stroke-miterlimit="10" x1="56.5" y1="530.8" x2="86.3" y2="530.8"/>
			<line fill="none" stroke="#000000" stroke-width="2" stroke-miterlimit="10" x1="60.3" y1="400.2" x2="86.8" y2="400.2"/>
			<line fill="none" stroke="#000000" stroke-width="2" stroke-miterlimit="10" x1="60.3" y1="414.4" x2="86.8" y2="414.4"/>
			<line fill="none" stroke="#000000" stroke-width="2" stroke-miterlimit="10" x1="24.6" y1="454.4" x2="24.6" y2="484.2"/>
		</g>
	</g>
	<g id="column_1_">
		<g id="cell_5_">
			<rect x="108.9" y="26" fill="none" stroke="#000000" stroke-width="4" stroke-miterlimit="10" width="88.7" height="178"/>
			<rect x="113.9" y="98.4" fill="none" stroke="#000000" stroke-width="2" stroke-miterlimit="10" width="14.9" height="29.7"/>
			<ellipse fill="none" stroke="#000000" stroke-width="2" stroke-miterlimit="10" cx="117.4" cy="114.1" rx="2.5" ry="2.5"/>
			<line fill="none" stroke="#000000" stroke-width="2" stroke-miterlimit="10" x1="153.2" y1="183.1" x2="183.1" y2="183.1"/>
			<line fill="none" stroke="#000000" stroke-width="2" stroke-miterlimit="10" x1="153.2" y1="166.1" x2="183.1" y2="166.1"/>
			<line fill="none" stroke="#000000" stroke-width="2" stroke-miterlimit="10" x1="153.2" y1="174.8" x2="183.1" y2="174.8"/>
			<line fill="none" stroke="#000000" stroke-width="2" stroke-miterlimit="10" x1="157.1" y1="44.2" x2="183.6" y2="44.2"/>
			<line fill="none" stroke="#000000" stroke-width="2" stroke-miterlimit="10" x1="157.1" y1="58.4" x2="183.6" y2="58.4"/>
			<line fill="none" stroke="#000000" stroke-width="2" stroke-miterlimit="10" x1="121.4" y1="98.4" x2="121.4" y2="128.2"/>
		</g>
		<g id="cell_4_">
			<rect x="108.9" y="204" fill="none" stroke="#000000" stroke-width="4" stroke-miterlimit="10" width="88.7" height="178"/>
			<rect x="113.9" y="276.4" fill="none" stroke="#000000" stroke-width="2" stroke-miterlimit="10" width="14.9" height="29.7"/>
			<ellipse fill="none" stroke="#000000" stroke-width="2" stroke-miterlimit="10" cx="117.4" cy="292.1" rx="2.5" ry="2.5"/>
			<line fill="none" stroke="#000000" stroke-width="2" stroke-miterlimit="10" x1="153.2" y1="361.1" x2="183.1" y2="361.1"/>
			<line fill="none" stroke="#000000" stroke-width="2" stroke-miterlimit="10" x1="153.2" y1="344.1" x2="183.1" y2="344.1"/>
			<line fill="none" stroke="#000000" stroke-width="2" stroke-miterlimit="10" x1="153.2" y1="352.8" x2="183.1" y2="352.8"/>
			<line fill="none" stroke="#000000" stroke-width="2" stroke-miterlimit="10" x1="157.1" y1="222.2" x2="183.6" y2="222.2"/>
			<line fill="none" stroke="#000000" stroke-width="2" stroke-miterlimit="10" x1="157.1" y1="236.4" x2="183.6" y2="236.4"/>
			<line fill="none" stroke="#000000" stroke-width="2" stroke-miterlimit="10" x1="121.4" y1="276.4" x2="121.4" y2="306.2"/>
		</g>
		<g id="cell_3_">
			<rect x="108.9" y="382" fill="none" stroke="#000000" stroke-width="4" stroke-miterlimit="10" width="88.7" height="178"/>
			<rect x="113.9" y="454.4" fill="none" stroke="#000000" stroke-width="2" stroke-miterlimit="10" width="14.9" height="29.7"/>
			<ellipse fill="none" stroke="#000000" stroke-width="2" stroke-miterlimit="10" cx="117.4" cy="470.1" rx="2.5" ry="2.5"/>
			<line fill="none" stroke="#000000" stroke-width="2" stroke-miterlimit="10" x1="153.2" y1="539.1" x2="183.1" y2="539.1"/>
			<line fill="none" stroke="#000000" stroke-width="2" stroke-miterlimit="10" x1="153.2" y1="522.1" x2="183.1" y2="522.1"/>
			<line fill="none" stroke="#000000" stroke-width="2" stroke-miterlimit="10" x1="153.2" y1="530.8" x2="183.1" y2="530.8"/>
			<line fill="none" stroke="#000000" stroke-width="2" stroke-miterlimit="10" x1="157.1" y1="400.2" x2="183.6" y2="400.2"/>
			<line fill="none" stroke="#000000" stroke-width="2" stroke-miterlimit="10" x1="157.1" y1="414.4" x2="183.6" y2="414.4"/>
			<line fill="none" stroke="#000000" stroke-width="2" stroke-miterlimit="10" x1="121.4" y1="454.4" x2="121.4" y2="484.2"/>
		</g>
	</g>
	<g id="column_2_">
		<g id="cell_8_">
			<rect x="204.5" y="26.3" fill="none" stroke="#000000" stroke-width="4" stroke-miterlimit="10" width="88.7" height="178"/>
			<rect x="209.5" y="98.8" fill="none" stroke="#000000" stroke-width="2" stroke-miterlimit="10" width="14.9" height="29.7"/>
			<ellipse fill="none" stroke="#000000" stroke-width="2" stroke-miterlimit="10" cx="213" cy="114.4" rx="2.5" ry="2.5"/>
			<line fill="none" stroke="#000000" stroke-width="2" stroke-miterlimit="10" x1="248.9" y1="183.4" x2="278.8" y2="183.4"/>
			<line fill="none" stroke="#000000" stroke-width="2" stroke-miterlimit="10" x1="248.9" y1="166.4" x2="278.8" y2="166.4"/>
			<line fill="none" stroke="#000000" stroke-width="2" stroke-miterlimit="10" x1="248.9" y1="175.1" x2="278.8" y2="175.1"/>
			<line fill="none" stroke="#000000" stroke-width="2" stroke-miterlimit="10" x1="252.7" y1="44.5" x2="279.2" y2="44.5"/>
			<line fill="none" stroke="#000000" stroke-width="2" stroke-miterlimit="10" x1="252.7" y1="58.7" x2="279.2" y2="58.7"/>
			<line fill="none" stroke="#000000" stroke-width="2" stroke-miterlimit="10" x1="217" y1="98.8" x2="217" y2="128.5"/>
		</g>
		<g id="cell_7_">
			<rect x="204.5" y="204.3" fill="none" stroke="#000000" stroke-width="4" stroke-miterlimit="10" width="88.7" height="178"/>
			<rect x="209.5" y="276.8" fill="none" stroke="#000000" stroke-width="2" stroke-miterlimit="10" width="14.9" height="29.7"/>
			<ellipse fill="none" stroke="#000000" stroke-width="2" stroke-miterlimit="10" cx="213" cy="292.4" rx="2.5" ry="2.5"/>
			<line fill="none" stroke="#000000" stroke-width="2" stroke-miterlimit="10" x1="248.9" y1="361.4" x2="278.8" y2="361.4"/>
			<line fill="none" stroke="#000000" stroke-width="2" stroke-miterlimit="10" x1="248.9" y1="344.4" x2="278.8" y2="344.4"/>
			<line fill="none" stroke="#000000" stroke-width="2" stroke-miterlimit="10" x1="248.9" y1="353.1" x2="278.8" y2="353.1"/>
			<line fill="none" stroke="#000000" stroke-width="2" stroke-miterlimit="10" x1="252.7" y1="222.5" x2="279.2" y2="222.5"/>
			<line fill="none" stroke="#000000" stroke-width="2" stroke-miterlimit="10" x1="252.7" y1="236.7" x2="279.2" y2="236.7"/>
			<line fill="none" stroke="#000000" stroke-width="2" stroke-miterlimit="10" x1="217" y1="276.8" x2="217" y2="306.5"/>
		</g>
		<g id="cell_6_">
			<rect x="204.5" y="382.3" fill="none" stroke="#000000" stroke-width="4" stroke-miterlimit="10" width="88.7" height="178"/>
			<rect x="209.5" y="454.8" fill="none" stroke="#000000" stroke-width="2" stroke-miterlimit="10" width="14.9" height="29.7"/>
			<ellipse fill="none" stroke="#000000" stroke-width="2" stroke-miterlimit="10" cx="213" cy="470.4" rx="2.5" ry="2.5"/>
			<line fill="none" stroke="#000000" stroke-width="2" stroke-miterlimit="10" x1="248.9" y1="539.4" x2="278.8" y2="539.4"/>
			<line fill="none" stroke="#000000" stroke-width="2" stroke-miterlimit="10" x1="248.9" y1="522.4" x2="278.8" y2="522.4"/>
			<line fill="none" stroke="#000000" stroke-width="2" stroke-miterlimit="10" x1="248.9" y1="531.1" x2="278.8" y2="531.1"/>
			<line fill="none" stroke="#000000" stroke-width="2" stroke-miterlimit="10" x1="252.7" y1="400.5" x2="279.2" y2="400.5"/>
			<line fill="none" stroke="#000000" stroke-width="2" stroke-miterlimit="10" x1="252.7" y1="414.7" x2="279.2" y2="414.7"/>
			<line fill="none" stroke="#000000" stroke-width="2" stroke-miterlimit="10" x1="217" y1="454.8" x2="217" y2="484.5"/>
		</g>
	</g>
</g>
<g id="panel_1_">
	<rect x="300.2" y="11.5" fill="none" stroke="#000000" stroke-width="4" stroke-miterlimit="10" width="295.5" height="576"/>
	<g id="column_5_">
		<g id="cell_17_">
			<rect x="307.6" y="26" fill="none" stroke="#000000" stroke-width="4" stroke-miterlimit="10" width="88.7" height="178"/>
			<rect x="312.6" y="98.4" fill="none" stroke="#000000" stroke-width="2" stroke-miterlimit="10" width="14.9" height="29.7"/>
			<ellipse fill="none" stroke="#000000" stroke-width="2" stroke-miterlimit="10" cx="316.1" cy="114.1" rx="2.5" ry="2.5"/>
			<line fill="none" stroke="#000000" stroke-width="2" stroke-miterlimit="10" x1="352" y1="183.1" x2="381.8" y2="183.1"/>
			<line fill="none" stroke="#000000" stroke-width="2" stroke-miterlimit="10" x1="352" y1="166.1" x2="381.8" y2="166.1"/>
			<line fill="none" stroke="#000000" stroke-width="2" stroke-miterlimit="10" x1="352" y1="174.8" x2="381.8" y2="174.8"/>
			<line fill="none" stroke="#000000" stroke-width="2" stroke-miterlimit="10" x1="355.8" y1="44.2" x2="382.3" y2="44.2"/>
			<line fill="none" stroke="#000000" stroke-width="2" stroke-miterlimit="10" x1="355.8" y1="58.4" x2="382.3" y2="58.4"/>
			<line fill="none" stroke="#000000" stroke-width="2" stroke-miterlimit="10" x1="320.1" y1="98.4" x2="320.1" y2="128.2"/>
		</g>
		<g id="cell_16_">
			<rect x="307.6" y="204" fill="none" stroke="#000000" stroke-width="4" stroke-miterlimit="10" width="88.7" height="178"/>
			<rect x="312.6" y="276.4" fill="none" stroke="#000000" stroke-width="2" stroke-miterlimit="10" width="14.9" height="29.7"/>
			<ellipse fill="none" stroke="#000000" stroke-width="2" stroke-miterlimit="10" cx="316.1" cy="292.1" rx="2.5" ry="2.5"/>
			<line fill="none" stroke="#000000" stroke-width="2" stroke-miterlimit="10" x1="352" y1="361.1" x2="381.8" y2="361.1"/>
			<line fill="none" stroke="#000000" stroke-width="2" stroke-miterlimit="10" x1="352" y1="344.1" x2="381.8" y2="344.1"/>
			<line fill="none" stroke="#000000" stroke-width="2" stroke-miterlimit="10" x1="352" y1="352.8" x2="381.8" y2="352.8"/>
			<line fill="none" stroke="#000000" stroke-width="2" stroke-miterlimit="10" x1="355.8" y1="222.2" x2="382.3" y2="222.2"/>
			<line fill="none" stroke="#000000" stroke-width="2" stroke-miterlimit="10" x1="355.8" y1="236.4" x2="382.3" y2="236.4"/>
			<line fill="none" stroke="#000000" stroke-width="2" stroke-miterlimit="10" x1="320.1" y1="276.4" x2="320.1" y2="306.2"/>
		</g>
		<g id="cell_15_">
			<rect x="307.6" y="382" fill="none" stroke="#000000" stroke-width="4" stroke-miterlimit="10" width="88.7" height="178"/>
			<rect x="312.6" y="454.4" fill="none" stroke="#000000" stroke-width="2" stroke-miterlimit="10" width="14.9" height="29.7"/>
			<ellipse fill="none" stroke="#000000" stroke-width="2" stroke-miterlimit="10" cx="316.1" cy="470.1" rx="2.5" ry="2.5"/>
			<line fill="none" stroke="#000000" stroke-width="2" stroke-miterlimit="10" x1="352" y1="539.1" x2="381.8" y2="539.1"/>
			<line fill="none" stroke="#000000" stroke-width="2" stroke-miterlimit="10" x1="352" y1="522.1" x2="381.8" y2="522.1"/>
			<line fill="none" stroke="#000000" stroke-width="2" stroke-miterlimit="10" x1="352" y1="530.8" x2="381.8" y2="530.8"/>
			<line fill="none" stroke="#000000" stroke-width="2" stroke-miterlimit="10" x1="355.8" y1="400.2" x2="382.3" y2="400.2"/>
			<line fill="none" stroke="#000000" stroke-width="2" stroke-miterlimit="10" x1="355.8" y1="414.4" x2="382.3" y2="414.4"/>
			<line fill="none" stroke="#000000" stroke-width="2" stroke-miterlimit="10" x1="320.1" y1="454.4" x2="320.1" y2="484.2"/>
		</g>
	</g>
	<g id="column_4_">
		<g id="cell_14_">
			<rect x="404.4" y="26" fill="none" stroke="#000000" stroke-width="4" stroke-miterlimit="10" width="88.7" height="178"/>
			<rect x="409.4" y="98.4" fill="none" stroke="#000000" stroke-width="2" stroke-miterlimit="10" width="14.9" height="29.7"/>
			<ellipse fill="none" stroke="#000000" stroke-width="2" stroke-miterlimit="10" cx="412.9" cy="114.1" rx="2.5" ry="2.5"/>
			<line fill="none" stroke="#000000" stroke-width="2" stroke-miterlimit="10" x1="448.7" y1="183.1" x2="478.6" y2="183.1"/>
			<line fill="none" stroke="#000000" stroke-width="2" stroke-miterlimit="10" x1="448.7" y1="166.1" x2="478.6" y2="166.1"/>
			<line fill="none" stroke="#000000" stroke-width="2" stroke-miterlimit="10" x1="448.7" y1="174.8" x2="478.6" y2="174.8"/>
			<line fill="none" stroke="#000000" stroke-width="2" stroke-miterlimit="10" x1="452.6" y1="44.2" x2="479.1" y2="44.2"/>
			<line fill="none" stroke="#000000" stroke-width="2" stroke-miterlimit="10" x1="452.6" y1="58.4" x2="479.1" y2="58.4"/>
			<line fill="none" stroke="#000000" stroke-width="2" stroke-miterlimit="10" x1="416.9" y1="98.4" x2="416.9" y2="128.2"/>
		</g>
		<g id="cell_13_">
			<rect x="404.4" y="204" fill="none" stroke="#000000" stroke-width="4" stroke-miterlimit="10" width="88.7" height="178"/>
			<rect x="409.4" y="276.4" fill="none" stroke="#000000" stroke-width="2" stroke-miterlimit="10" width="14.9" height="29.7"/>
			<ellipse fill="none" stroke="#000000" stroke-width="2" stroke-miterlimit="10" cx="412.9" cy="292.1" rx="2.5" ry="2.5"/>
			<line fill="none" stroke="#000000" stroke-width="2" stroke-miterlimit="10" x1="448.7" y1="361.1" x2="478.6" y2="361.1"/>
			<line fill="none" stroke="#000000" stroke-width="2" stroke-miterlimit="10" x1="448.7" y1="344.1" x2="478.6" y2="344.1"/>
			<line fill="none" stroke="#000000" stroke-width="2" stroke-miterlimit="10" x1="448.7" y1="352.8" x2="478.6" y2="352.8"/>
			<line fill="none" stroke="#000000" stroke-width="2" stroke-miterlimit="10" x1="452.6" y1="222.2" x2="479.1" y2="222.2"/>
			<line fill="none" stroke="#000000" stroke-width="2" stroke-miterlimit="10" x1="452.6" y1="236.4" x2="479.1" y2="236.4"/>
			<line fill="none" stroke="#000000" stroke-width="2" stroke-miterlimit="10" x1="416.9" y1="276.4" x2="416.9" y2="306.2"/>
		</g>
		<g id="cell_12_">
			<rect x="404.4" y="382" fill="none" stroke="#000000" stroke-width="4" stroke-miterlimit="10" width="88.7" height="178"/>
			<rect x="409.4" y="454.4" fill="none" stroke="#000000" stroke-width="2" stroke-miterlimit="10" width="14.9" height="29.7"/>
			<ellipse fill="none" stroke="#000000" stroke-width="2" stroke-miterlimit="10" cx="412.9" cy="470.1" rx="2.5" ry="2.5"/>
			<line fill="none" stroke="#000000" stroke-width="2" stroke-miterlimit="10" x1="448.7" y1="539.1" x2="478.6" y2="539.1"/>
			<line fill="none" stroke="#000000" stroke-width="2" stroke-miterlimit="10" x1="448.7" y1="522.1" x2="478.6" y2="522.1"/>
			<line fill="none" stroke="#000000" stroke-width="2" stroke-miterlimit="10" x1="448.7" y1="530.8" x2="478.6" y2="530.8"/>
			<line fill="none" stroke="#000000" stroke-width="2" stroke-miterlimit="10" x1="452.6" y1="400.2" x2="479.1" y2="400.2"/>
			<line fill="none" stroke="#000000" stroke-width="2" stroke-miterlimit="10" x1="452.6" y1="414.4" x2="479.1" y2="414.4"/>
			<line fill="none" stroke="#000000" stroke-width="2" stroke-miterlimit="10" x1="416.9" y1="454.4" x2="416.9" y2="484.2"/>
		</g>
	</g>
	<g id="column_3_">
		<g id="cell_11_">
			<rect x="500" y="26.3" fill="none" stroke="#000000" stroke-width="4" stroke-miterlimit="10" width="88.7" height="178"/>
			<rect x="505" y="98.8" fill="none" stroke="#000000" stroke-width="2" stroke-miterlimit="10" width="14.9" height="29.7"/>
			<ellipse fill="none" stroke="#000000" stroke-width="2" stroke-miterlimit="10" cx="508.5" cy="114.4" rx="2.5" ry="2.5"/>
			<line fill="none" stroke="#000000" stroke-width="2" stroke-miterlimit="10" x1="544.4" y1="183.4" x2="574.3" y2="183.4"/>
			<line fill="none" stroke="#000000" stroke-width="2" stroke-miterlimit="10" x1="544.4" y1="166.4" x2="574.3" y2="166.4"/>
			<line fill="none" stroke="#000000" stroke-width="2" stroke-miterlimit="10" x1="544.4" y1="175.1" x2="574.3" y2="175.1"/>
			<line fill="none" stroke="#000000" stroke-width="2" stroke-miterlimit="10" x1="548.2" y1="44.5" x2="574.7" y2="44.5"/>
			<line fill="none" stroke="#000000" stroke-width="2" stroke-miterlimit="10" x1="548.2" y1="58.7" x2="574.7" y2="58.7"/>
			<line fill="none" stroke="#000000" stroke-width="2" stroke-miterlimit="10" x1="512.5" y1="98.8" x2="512.5" y2="128.5"/>
		</g>
		<g id="cell_10_">
			<rect x="500" y="204.3" fill="none" stroke="#000000" stroke-width="4" stroke-miterlimit="10" width="88.7" height="178"/>
			<rect x="505" y="276.8" fill="none" stroke="#000000" stroke-width="2" stroke-miterlimit="10" width="14.9" height="29.7"/>
			<ellipse fill="none" stroke="#000000" stroke-width="2" stroke-miterlimit="10" cx="508.5" cy="292.4" rx="2.5" ry="2.5"/>
			<line fill="none" stroke="#000000" stroke-width="2" stroke-miterlimit="10" x1="544.4" y1="361.4" x2="574.3" y2="361.4"/>
			<line fill="none" stroke="#000000" stroke-width="2" stroke-miterlimit="10" x1="544.4" y1="344.4" x2="574.3" y2="344.4"/>
			<line fill="none" stroke="#000000" stroke-width="2" stroke-miterlimit="10" x1="544.4" y1="353.1" x2="574.3" y2="353.1"/>
			<line fill="none" stroke="#000000" stroke-width="2" stroke-miterlimit="10" x1="548.2" y1="222.5" x2="574.7" y2="222.5"/>
			<line fill="none" stroke="#000000" stroke-width="2" stroke-miterlimit="10" x1="548.2" y1="236.7" x2="574.7" y2="236.7"/>
			<line fill="none" stroke="#000000" stroke-width="2" stroke-miterlimit="10" x1="512.5" y1="276.8" x2="512.5" y2="306.5"/>
		</g>
		<g id="cell_9_">
			<rect x="500" y="382.3" fill="none" stroke="#000000" stroke-width="4" stroke-miterlimit="10" width="88.7" height="178"/>
			<rect x="505" y="454.8" fill="none" stroke="#000000" stroke-width="2" stroke-miterlimit="10" width="14.9" height="29.7"/>
			<ellipse fill="none" stroke="#000000" stroke-width="2" stroke-miterlimit="10" cx="508.5" cy="470.4" rx="2.5" ry="2.5"/>
			<line fill="none" stroke="#000000" stroke-width="2" stroke-miterlimit="10" x1="544.4" y1="539.4" x2="574.3" y2="539.4"/>
			<line fill="none" stroke="#000000" stroke-width="2" stroke-miterlimit="10" x1="544.4" y1="522.4" x2="574.3" y2="522.4"/>
			<line fill="none" stroke="#000000" stroke-width="2" stroke-miterlimit="10" x1="544.4" y1="531.1" x2="574.3" y2="531.1"/>
			<line fill="none" stroke="#000000" stroke-width="2" stroke-miterlimit="10" x1="548.2" y1="400.5" x2="574.7" y2="400.5"/>
			<line fill="none" stroke="#000000" stroke-width="2" stroke-miterlimit="10" x1="548.2" y1="414.7" x2="574.7" y2="414.7"/>
			<line fill="none" stroke="#000000" stroke-width="2" stroke-miterlimit="10" x1="512.5" y1="454.8" x2="512.5" y2="484.5"/>
		</g>
	</g>
</g>
</svg>
