<?xml version="1.0" encoding="utf-8"?>
<!-- Generator: Adobe Illustrator 18.0.0, SVG Export Plug-In . SVG Version: 6.00 Build 0)  -->
<!DOCTYPE svg PUBLIC "-//W3C//DTD SVG 1.1//EN" "http://www.w3.org/Graphics/SVG/1.1/DTD/svg11.dtd">
<svg version="1.1" id="Layer_2" xmlns="http://www.w3.org/2000/svg" xmlns:xlink="http://www.w3.org/1999/xlink" x="0px" y="0px"
	 viewBox="0 0 600 600" enable-background="new 0 0 600 600" xml:space="preserve">
<line fill="none" stroke="#000000" stroke-width="3" stroke-miterlimit="10" x1="232" y1="532.4" x2="79" y2="444.1"/>
<line fill="none" stroke="#000000" stroke-width="3" stroke-miterlimit="10" x1="79" y1="444.1" x2="79" y2="247.8"/>
<line fill="none" stroke="#000000" stroke-width="3" stroke-miterlimit="10" x1="79" y1="247.8" x2="232" y2="336.1"/>
<line fill="none" stroke="#000000" stroke-width="3" stroke-miterlimit="10" x1="232" y1="336.1" x2="232" y2="532.4"/>
<line fill="none" stroke="#000000" stroke-width="3" stroke-miterlimit="10" x1="232" y1="532.4" x2="487" y2="385.2"/>
<line fill="none" stroke="#000000" stroke-width="3" stroke-miterlimit="10" x1="232" y1="336.1" x2="487" y2="188.9"/>
<line fill="none" stroke="#000000" stroke-width="3" stroke-miterlimit="10" x1="487" y1="188.9" x2="487" y2="385.2"/>
<line fill="none" stroke="#000000" stroke-width="3" stroke-miterlimit="10" x1="79" y1="247.8" x2="334" y2="100.6"/>
<line fill="none" stroke="#000000" stroke-width="3" stroke-miterlimit="10" x1="334" y1="100.6" x2="487" y2="188.9"/>
<line fill="none" stroke="#000000" stroke-width="3" stroke-miterlimit="10" x1="28" y1="218.3" x2="62" y2="238"/>
<line fill="none" stroke="#000000" stroke-width="3" stroke-miterlimit="10" x1="45" y1="228.2" x2="300" y2="80.9"/>
<line fill="none" stroke="#000000" stroke-width="3" stroke-miterlimit="10" x1="283" y1="71.1" x2="317" y2="90.7"/>
<line fill="none" stroke="#000000" stroke-width="3" stroke-miterlimit="10" x1="351" y1="90.7" x2="385" y2="71.1"/>
<line fill="none" stroke="#000000" stroke-width="3" stroke-miterlimit="10" x1="368" y1="80.9" x2="521" y2="169.3"/>
<line fill="none" stroke="#000000" stroke-width="3" stroke-miterlimit="10" x1="504" y1="179.1" x2="538" y2="159.4"/>
<line fill="none" stroke="#000000" stroke-width="3" stroke-miterlimit="10" x1="521" y1="169.3" x2="521" y2="365.6"/>
<line fill="none" stroke="#000000" stroke-width="3" stroke-miterlimit="10" x1="504" y1="375.4" x2="538" y2="355.7"/>
<line fill="none" stroke="#000000" stroke-width="3" stroke-miterlimit="10" x1="87.4" y1="311.5" x2="87.6" y2="390.2"/>
<line fill="none" stroke="#000000" stroke-width="3" stroke-miterlimit="10" x1="87.6" y1="390.2" x2="113" y2="404.8"/>
<line fill="none" stroke="#000000" stroke-width="3" stroke-miterlimit="10" x1="113" y1="326.3" x2="113" y2="404.8"/>
<line fill="none" stroke="#000000" stroke-width="3" stroke-miterlimit="10" x1="113" y1="326.3" x2="87.4" y2="311.5"/>
<line fill="none" stroke="#000000" stroke-width="3" stroke-miterlimit="10" x1="96" y1="316.5" x2="96" y2="395"/>
<line fill="none" stroke="#000000" stroke-width="3" stroke-miterlimit="10" x1="164" y1="316.5" x2="164" y2="355.7"/>
<line fill="none" stroke="#000000" stroke-width="3" stroke-miterlimit="10" x1="164" y1="355.7" x2="215" y2="385.2"/>
<line fill="none" stroke="#000000" stroke-width="3" stroke-miterlimit="10" x1="215" y1="385.2" x2="215" y2="345.9"/>
<line fill="none" stroke="#000000" stroke-width="3" stroke-miterlimit="10" x1="215" y1="345.9" x2="164" y2="316.5"/>
<line fill="none" stroke="#000000" stroke-width="3" stroke-miterlimit="10" x1="130" y1="414.6" x2="130" y2="434.3"/>
<line fill="none" stroke="#000000" stroke-width="3" stroke-miterlimit="10" x1="130" y1="434.3" x2="164" y2="453.9"/>
<line fill="none" stroke="#000000" stroke-width="3" stroke-miterlimit="10" x1="164" y1="453.9" x2="164" y2="434.3"/>
<line fill="none" stroke="#000000" stroke-width="3" stroke-miterlimit="10" x1="181" y1="444.1" x2="181" y2="463.7"/>
<line fill="none" stroke="#000000" stroke-width="3" stroke-miterlimit="10" x1="181" y1="463.7" x2="215" y2="483.3"/>
<line fill="none" stroke="#000000" stroke-width="3" stroke-miterlimit="10" x1="215" y1="483.3" x2="215" y2="463.7"/>
<line fill="none" stroke="#000000" stroke-width="3" stroke-miterlimit="10" x1="130" y1="443.2" x2="130" y2="462.9"/>
<line fill="none" stroke="#000000" stroke-width="3" stroke-miterlimit="10" x1="130" y1="462.9" x2="164" y2="482.5"/>
<line fill="none" stroke="#000000" stroke-width="3" stroke-miterlimit="10" x1="164" y1="482.5" x2="164" y2="462.9"/>
<line fill="none" stroke="#000000" stroke-width="3" stroke-miterlimit="10" x1="181" y1="472.7" x2="181" y2="492.3"/>
<line fill="none" stroke="#000000" stroke-width="3" stroke-miterlimit="10" x1="181" y1="492.3" x2="215" y2="511.9"/>
<line fill="none" stroke="#000000" stroke-width="3" stroke-miterlimit="10" x1="215" y1="511.9" x2="215" y2="492.3"/>
<ellipse transform="matrix(0.9996 -2.919480e-002 2.919480e-002 0.9996 -10.3223 2.8229)" fill="none" stroke="#000000" stroke-width="3" stroke-miterlimit="10" cx="91.5" cy="354.9" rx="3.9" ry="5.5"/>
<text transform="matrix(0.75 -0.433 0 1 526.3665 272.5976)" font-family="'Roboto-Regular'" font-size="24.2487">28 cm</text>
<text transform="matrix(0.75 -0.433 0.866 0.5 447.4999 117.1882)" font-family="'Roboto-Regular'" font-size="24.2487">28 cm</text>
<text transform="matrix(0.75 -0.433 0.866 0.5 150.1999 154.541)" font-family="'Roboto-Regular'" font-size="24.2487">45 cm</text>
</svg>
