<?xml version="1.0" encoding="utf-8"?>
<!-- Generator: Adobe Illustrator 18.0.0, SVG Export Plug-In . SVG Version: 6.00 Build 0)  -->
<!DOCTYPE svg PUBLIC "-//W3C//DTD SVG 1.1//EN" "http://www.w3.org/Graphics/SVG/1.1/DTD/svg11.dtd">
<svg version="1.1" id="Layer_2" xmlns="http://www.w3.org/2000/svg" xmlns:xlink="http://www.w3.org/1999/xlink" x="0px" y="0px"
	 viewBox="0 0 600 600" enable-background="new 0 0 600 600" xml:space="preserve">
<line fill="none" stroke="#000000" stroke-width="3" stroke-miterlimit="10" x1="232" y1="571.4" x2="79" y2="483.1"/>
<line fill="none" stroke="#000000" stroke-width="3" stroke-miterlimit="10" x1="79" y1="483.1" x2="79" y2="188.6"/>
<line fill="none" stroke="#000000" stroke-width="3" stroke-miterlimit="10" x1="79" y1="188.6" x2="232" y2="277"/>
<line fill="none" stroke="#000000" stroke-width="3" stroke-miterlimit="10" x1="232" y1="277" x2="232" y2="571.4"/>
<line fill="none" stroke="#000000" stroke-width="3" stroke-miterlimit="10" x1="232" y1="571.4" x2="487" y2="424.2"/>
<line fill="none" stroke="#000000" stroke-width="3" stroke-miterlimit="10" x1="232" y1="277" x2="487" y2="129.7"/>
<line fill="none" stroke="#000000" stroke-width="3" stroke-miterlimit="10" x1="487" y1="129.7" x2="487" y2="424.2"/>
<line fill="none" stroke="#000000" stroke-width="3" stroke-miterlimit="10" x1="79" y1="188.6" x2="334" y2="41.4"/>
<line fill="none" stroke="#000000" stroke-width="3" stroke-miterlimit="10" x1="334" y1="41.4" x2="487" y2="129.7"/>
<line fill="none" stroke="#000000" stroke-width="3" stroke-miterlimit="10" x1="28" y1="159.2" x2="62" y2="178.8"/>
<line fill="none" stroke="#000000" stroke-width="3" stroke-miterlimit="10" x1="45" y1="169" x2="300" y2="21.8"/>
<line fill="none" stroke="#000000" stroke-width="3" stroke-miterlimit="10" x1="283" y1="12" x2="317" y2="31.6"/>
<line fill="none" stroke="#000000" stroke-width="3" stroke-miterlimit="10" x1="351" y1="31.6" x2="385" y2="12"/>
<line fill="none" stroke="#000000" stroke-width="3" stroke-miterlimit="10" x1="368" y1="21.8" x2="521" y2="110.1"/>
<line fill="none" stroke="#000000" stroke-width="3" stroke-miterlimit="10" x1="504" y1="119.9" x2="538" y2="100.3"/>
<line fill="none" stroke="#000000" stroke-width="3" stroke-miterlimit="10" x1="521" y1="110.1" x2="521" y2="404.6"/>
<line fill="none" stroke="#000000" stroke-width="3" stroke-miterlimit="10" x1="504" y1="414.4" x2="538" y2="394.7"/>
<line fill="none" stroke="#000000" stroke-width="3" stroke-miterlimit="10" x1="87.5" y1="311.3" x2="87.7" y2="389.9"/>
<line fill="none" stroke="#000000" stroke-width="3" stroke-miterlimit="10" x1="87.7" y1="389.9" x2="113.1" y2="404.6"/>
<line fill="none" stroke="#000000" stroke-width="3" stroke-miterlimit="10" x1="113.1" y1="326" x2="113.1" y2="404.6"/>
<line fill="none" stroke="#000000" stroke-width="3" stroke-miterlimit="10" x1="113.1" y1="326" x2="87.5" y2="311.3"/>
<line fill="none" stroke="#000000" stroke-width="3" stroke-miterlimit="10" x1="96.1" y1="316.2" x2="96.1" y2="394.7"/>
<line fill="none" stroke="#000000" stroke-width="3" stroke-miterlimit="10" x1="164" y1="277" x2="164" y2="316.2"/>
<line fill="none" stroke="#000000" stroke-width="3" stroke-miterlimit="10" x1="164" y1="316.2" x2="215" y2="345.7"/>
<line fill="none" stroke="#000000" stroke-width="3" stroke-miterlimit="10" x1="215" y1="345.7" x2="215" y2="306.4"/>
<line fill="none" stroke="#000000" stroke-width="3" stroke-miterlimit="10" x1="215" y1="306.4" x2="164" y2="277"/>
<ellipse transform="matrix(0.9996 -2.919480e-002 2.919480e-002 0.9996 -10.3147 2.8257)" fill="none" stroke="#000000" stroke-width="3" stroke-miterlimit="10" cx="91.6" cy="354.6" rx="3.9" ry="5.5"/>
<text transform="matrix(0.75 -0.433 0 1 529.3669 270.0976)" font-family="'Roboto-Regular'" font-size="24.2487">45 cm</text>
<text transform="matrix(0.75 -0.433 0.866 0.5 453.0002 58.1882)" font-family="'Roboto-Regular'" font-size="24.2487">28 cm</text>
<text transform="matrix(0.75 -0.433 0.866 0.5 150.1994 76.541)" font-family="'Roboto-Regular'" font-size="24.2487">45 cm</text>
<line fill="none" stroke="#000000" stroke-width="3" stroke-miterlimit="10" x1="147" y1="483.1" x2="198" y2="512.5"/>
<line fill="none" stroke="#000000" stroke-width="3" stroke-miterlimit="10" x1="147" y1="463.5" x2="198" y2="492.9"/>
<line fill="none" stroke="#000000" stroke-width="3" stroke-miterlimit="10" x1="145.2" y1="442.8" x2="198" y2="473.3"/>
<line fill="none" stroke="#000000" stroke-width="3" stroke-miterlimit="10" x1="145.2" y1="502.7" x2="198" y2="532.2"/>
</svg>
