<?xml version="1.0" encoding="utf-8"?>
<!-- Generator: Adobe Illustrator 18.0.0, SVG Export Plug-In . SVG Version: 6.00 Build 0)  -->
<!DOCTYPE svg PUBLIC "-//W3C//DTD SVG 1.1//EN" "http://www.w3.org/Graphics/SVG/1.1/DTD/svg11.dtd">
<svg version="1.1" id="Layer_1" xmlns="http://www.w3.org/2000/svg" xmlns:xlink="http://www.w3.org/1999/xlink" x="0px" y="0px"
	 viewBox="0 0 600 600" enable-background="new 0 0 600 600" xml:space="preserve">
<g id="panel">
	<rect x="300.2" y="11.5" fill="none" stroke="#000000" stroke-width="4" stroke-miterlimit="10" width="295.5" height="576"/>
	<g id="column">
		<g id="cell">
			<rect x="307.6" y="26" fill="none" stroke="#000000" stroke-width="4" stroke-miterlimit="10" width="88.7" height="133.9"/>
			<rect x="312.6" y="80.5" fill="none" stroke="#000000" stroke-width="2" stroke-miterlimit="10" width="14.9" height="22.4"/>
			<ellipse fill="none" stroke="#000000" stroke-width="2" stroke-miterlimit="10" cx="316.1" cy="92.2" rx="2.5" ry="1.9"/>
			<line fill="none" stroke="#000000" stroke-width="2" stroke-miterlimit="10" x1="352" y1="144.1" x2="381.8" y2="144.1"/>
			<line fill="none" stroke="#000000" stroke-width="2" stroke-miterlimit="10" x1="352" y1="131.4" x2="381.8" y2="131.4"/>
			<line fill="none" stroke="#000000" stroke-width="2" stroke-miterlimit="10" x1="352" y1="137.9" x2="381.8" y2="137.9"/>
			<line fill="none" stroke="#000000" stroke-width="2" stroke-miterlimit="10" x1="355.8" y1="39.7" x2="382.3" y2="39.7"/>
			<line fill="none" stroke="#000000" stroke-width="2" stroke-miterlimit="10" x1="355.8" y1="50.4" x2="382.3" y2="50.4"/>
			<line fill="none" stroke="#000000" stroke-width="2" stroke-miterlimit="10" x1="320.1" y1="80.5" x2="320.1" y2="102.8"/>
			<line fill="none" stroke="#000000" stroke-width="2" stroke-miterlimit="10" x1="352" y1="125.3" x2="381.8" y2="125.3"/>
		</g>
		<g id="cell_1_">
			<rect x="307.6" y="159.9" fill="none" stroke="#000000" stroke-width="4" stroke-miterlimit="10" width="88.7" height="133.9"/>
			<rect x="312.6" y="214.4" fill="none" stroke="#000000" stroke-width="2" stroke-miterlimit="10" width="14.9" height="22.4"/>
			<ellipse fill="none" stroke="#000000" stroke-width="2" stroke-miterlimit="10" cx="316.1" cy="226.1" rx="2.5" ry="1.9"/>
			<line fill="none" stroke="#000000" stroke-width="2" stroke-miterlimit="10" x1="352" y1="278" x2="381.8" y2="278"/>
			<line fill="none" stroke="#000000" stroke-width="2" stroke-miterlimit="10" x1="352" y1="265.2" x2="381.8" y2="265.2"/>
			<line fill="none" stroke="#000000" stroke-width="2" stroke-miterlimit="10" x1="352" y1="271.8" x2="381.8" y2="271.8"/>
			<line fill="none" stroke="#000000" stroke-width="2" stroke-miterlimit="10" x1="355.8" y1="173.5" x2="382.3" y2="173.5"/>
			<line fill="none" stroke="#000000" stroke-width="2" stroke-miterlimit="10" x1="355.8" y1="184.3" x2="382.3" y2="184.3"/>
			<line fill="none" stroke="#000000" stroke-width="2" stroke-miterlimit="10" x1="320.1" y1="214.4" x2="320.1" y2="236.7"/>
			<line fill="none" stroke="#000000" stroke-width="2" stroke-miterlimit="10" x1="352" y1="259.1" x2="381.8" y2="259.1"/>
		</g>
		<g id="cell_3_">
			<rect x="307.6" y="292.3" fill="none" stroke="#000000" stroke-width="4" stroke-miterlimit="10" width="88.7" height="133.9"/>
			<rect x="312.6" y="346.7" fill="none" stroke="#000000" stroke-width="2" stroke-miterlimit="10" width="14.9" height="22.4"/>
			<ellipse fill="none" stroke="#000000" stroke-width="2" stroke-miterlimit="10" cx="316.1" cy="358.5" rx="2.5" ry="1.9"/>
			<line fill="none" stroke="#000000" stroke-width="2" stroke-miterlimit="10" x1="352" y1="410.4" x2="381.8" y2="410.4"/>
			<line fill="none" stroke="#000000" stroke-width="2" stroke-miterlimit="10" x1="352" y1="397.6" x2="381.8" y2="397.6"/>
			<line fill="none" stroke="#000000" stroke-width="2" stroke-miterlimit="10" x1="352" y1="404.2" x2="381.8" y2="404.2"/>
			<line fill="none" stroke="#000000" stroke-width="2" stroke-miterlimit="10" x1="355.8" y1="305.9" x2="382.3" y2="305.9"/>
			<line fill="none" stroke="#000000" stroke-width="2" stroke-miterlimit="10" x1="355.8" y1="316.6" x2="382.3" y2="316.6"/>
			<line fill="none" stroke="#000000" stroke-width="2" stroke-miterlimit="10" x1="320.1" y1="346.7" x2="320.1" y2="369.1"/>
			<line fill="none" stroke="#000000" stroke-width="2" stroke-miterlimit="10" x1="352" y1="391.5" x2="381.8" y2="391.5"/>
		</g>
		<g id="cell_2_">
			<rect x="307.6" y="426.1" fill="none" stroke="#000000" stroke-width="4" stroke-miterlimit="10" width="88.7" height="133.9"/>
			<rect x="312.6" y="480.6" fill="none" stroke="#000000" stroke-width="2" stroke-miterlimit="10" width="14.9" height="22.4"/>
			<ellipse fill="none" stroke="#000000" stroke-width="2" stroke-miterlimit="10" cx="316.1" cy="492.4" rx="2.5" ry="1.9"/>
			<line fill="none" stroke="#000000" stroke-width="2" stroke-miterlimit="10" x1="352" y1="544.3" x2="381.8" y2="544.3"/>
			<line fill="none" stroke="#000000" stroke-width="2" stroke-miterlimit="10" x1="352" y1="531.5" x2="381.8" y2="531.5"/>
			<line fill="none" stroke="#000000" stroke-width="2" stroke-miterlimit="10" x1="352" y1="538.1" x2="381.8" y2="538.1"/>
			<line fill="none" stroke="#000000" stroke-width="2" stroke-miterlimit="10" x1="355.8" y1="439.8" x2="382.3" y2="439.8"/>
			<line fill="none" stroke="#000000" stroke-width="2" stroke-miterlimit="10" x1="355.8" y1="450.5" x2="382.3" y2="450.5"/>
			<line fill="none" stroke="#000000" stroke-width="2" stroke-miterlimit="10" x1="320.1" y1="480.6" x2="320.1" y2="503"/>
			<line fill="none" stroke="#000000" stroke-width="2" stroke-miterlimit="10" x1="352" y1="525.4" x2="381.8" y2="525.4"/>
		</g>
	</g>
	<g id="column_1_">
		<g id="cell_7_">
			<rect x="500.1" y="26" fill="none" stroke="#000000" stroke-width="4" stroke-miterlimit="10" width="88.7" height="133.9"/>
			<rect x="505" y="80.5" fill="none" stroke="#000000" stroke-width="2" stroke-miterlimit="10" width="14.9" height="22.4"/>
			<ellipse fill="none" stroke="#000000" stroke-width="2" stroke-miterlimit="10" cx="508.5" cy="92.2" rx="2.5" ry="1.9"/>
			<line fill="none" stroke="#000000" stroke-width="2" stroke-miterlimit="10" x1="544.4" y1="144.1" x2="574.3" y2="144.1"/>
			<line fill="none" stroke="#000000" stroke-width="2" stroke-miterlimit="10" x1="544.4" y1="131.4" x2="574.3" y2="131.4"/>
			<line fill="none" stroke="#000000" stroke-width="2" stroke-miterlimit="10" x1="544.4" y1="137.9" x2="574.3" y2="137.9"/>
			<line fill="none" stroke="#000000" stroke-width="2" stroke-miterlimit="10" x1="548.2" y1="39.7" x2="574.8" y2="39.7"/>
			<line fill="none" stroke="#000000" stroke-width="2" stroke-miterlimit="10" x1="548.2" y1="50.4" x2="574.8" y2="50.4"/>
			<line fill="none" stroke="#000000" stroke-width="2" stroke-miterlimit="10" x1="512.5" y1="80.5" x2="512.5" y2="102.8"/>
			<line fill="none" stroke="#000000" stroke-width="2" stroke-miterlimit="10" x1="544.4" y1="125.3" x2="574.3" y2="125.3"/>
		</g>
		<g id="cell_6_">
			<rect x="500.1" y="159.9" fill="none" stroke="#000000" stroke-width="4" stroke-miterlimit="10" width="88.7" height="133.9"/>
			<rect x="505" y="214.4" fill="none" stroke="#000000" stroke-width="2" stroke-miterlimit="10" width="14.9" height="22.4"/>
			<ellipse fill="none" stroke="#000000" stroke-width="2" stroke-miterlimit="10" cx="508.5" cy="226.1" rx="2.5" ry="1.9"/>
			<line fill="none" stroke="#000000" stroke-width="2" stroke-miterlimit="10" x1="544.4" y1="278" x2="574.3" y2="278"/>
			<line fill="none" stroke="#000000" stroke-width="2" stroke-miterlimit="10" x1="544.4" y1="265.2" x2="574.3" y2="265.2"/>
			<line fill="none" stroke="#000000" stroke-width="2" stroke-miterlimit="10" x1="544.4" y1="271.8" x2="574.3" y2="271.8"/>
			<line fill="none" stroke="#000000" stroke-width="2" stroke-miterlimit="10" x1="548.2" y1="173.5" x2="574.8" y2="173.5"/>
			<line fill="none" stroke="#000000" stroke-width="2" stroke-miterlimit="10" x1="548.2" y1="184.3" x2="574.8" y2="184.3"/>
			<line fill="none" stroke="#000000" stroke-width="2" stroke-miterlimit="10" x1="512.5" y1="214.4" x2="512.5" y2="236.7"/>
			<line fill="none" stroke="#000000" stroke-width="2" stroke-miterlimit="10" x1="544.4" y1="259.1" x2="574.3" y2="259.1"/>
		</g>
		<g id="cell_5_">
			<rect x="500.1" y="292.3" fill="none" stroke="#000000" stroke-width="4" stroke-miterlimit="10" width="88.7" height="133.9"/>
			<rect x="505" y="346.7" fill="none" stroke="#000000" stroke-width="2" stroke-miterlimit="10" width="14.9" height="22.4"/>
			<ellipse fill="none" stroke="#000000" stroke-width="2" stroke-miterlimit="10" cx="508.5" cy="358.5" rx="2.5" ry="1.9"/>
			<line fill="none" stroke="#000000" stroke-width="2" stroke-miterlimit="10" x1="544.4" y1="410.4" x2="574.3" y2="410.4"/>
			<line fill="none" stroke="#000000" stroke-width="2" stroke-miterlimit="10" x1="544.4" y1="397.6" x2="574.3" y2="397.6"/>
			<line fill="none" stroke="#000000" stroke-width="2" stroke-miterlimit="10" x1="544.4" y1="404.2" x2="574.3" y2="404.2"/>
			<line fill="none" stroke="#000000" stroke-width="2" stroke-miterlimit="10" x1="548.2" y1="305.9" x2="574.8" y2="305.9"/>
			<line fill="none" stroke="#000000" stroke-width="2" stroke-miterlimit="10" x1="548.2" y1="316.6" x2="574.8" y2="316.6"/>
			<line fill="none" stroke="#000000" stroke-width="2" stroke-miterlimit="10" x1="512.5" y1="346.7" x2="512.5" y2="369.1"/>
			<line fill="none" stroke="#000000" stroke-width="2" stroke-miterlimit="10" x1="544.4" y1="391.5" x2="574.3" y2="391.5"/>
		</g>
		<g id="cell_4_">
			<rect x="500.1" y="426.1" fill="none" stroke="#000000" stroke-width="4" stroke-miterlimit="10" width="88.7" height="133.9"/>
			<rect x="505" y="480.6" fill="none" stroke="#000000" stroke-width="2" stroke-miterlimit="10" width="14.9" height="22.4"/>
			<ellipse fill="none" stroke="#000000" stroke-width="2" stroke-miterlimit="10" cx="508.5" cy="492.4" rx="2.5" ry="1.9"/>
			<line fill="none" stroke="#000000" stroke-width="2" stroke-miterlimit="10" x1="544.4" y1="544.3" x2="574.3" y2="544.3"/>
			<line fill="none" stroke="#000000" stroke-width="2" stroke-miterlimit="10" x1="544.4" y1="531.5" x2="574.3" y2="531.5"/>
			<line fill="none" stroke="#000000" stroke-width="2" stroke-miterlimit="10" x1="544.4" y1="538.1" x2="574.3" y2="538.1"/>
			<line fill="none" stroke="#000000" stroke-width="2" stroke-miterlimit="10" x1="548.2" y1="439.8" x2="574.8" y2="439.8"/>
			<line fill="none" stroke="#000000" stroke-width="2" stroke-miterlimit="10" x1="548.2" y1="450.5" x2="574.8" y2="450.5"/>
			<line fill="none" stroke="#000000" stroke-width="2" stroke-miterlimit="10" x1="512.5" y1="480.6" x2="512.5" y2="503"/>
			<line fill="none" stroke="#000000" stroke-width="2" stroke-miterlimit="10" x1="544.4" y1="525.4" x2="574.3" y2="525.4"/>
		</g>
	</g>
	<g id="column_2_">
		<g id="cell_11_">
			<rect x="404.3" y="26" fill="none" stroke="#000000" stroke-width="4" stroke-miterlimit="10" width="88.7" height="133.9"/>
			<rect x="409.2" y="80.5" fill="none" stroke="#000000" stroke-width="2" stroke-miterlimit="10" width="14.9" height="22.4"/>
			<ellipse fill="none" stroke="#000000" stroke-width="2" stroke-miterlimit="10" cx="412.7" cy="92.2" rx="2.5" ry="1.9"/>
			<line fill="none" stroke="#000000" stroke-width="2" stroke-miterlimit="10" x1="448.6" y1="144.1" x2="478.5" y2="144.1"/>
			<line fill="none" stroke="#000000" stroke-width="2" stroke-miterlimit="10" x1="448.6" y1="131.4" x2="478.5" y2="131.4"/>
			<line fill="none" stroke="#000000" stroke-width="2" stroke-miterlimit="10" x1="448.6" y1="137.9" x2="478.5" y2="137.9"/>
			<line fill="none" stroke="#000000" stroke-width="2" stroke-miterlimit="10" x1="452.4" y1="39.7" x2="479" y2="39.7"/>
			<line fill="none" stroke="#000000" stroke-width="2" stroke-miterlimit="10" x1="452.4" y1="50.4" x2="479" y2="50.4"/>
			<line fill="none" stroke="#000000" stroke-width="2" stroke-miterlimit="10" x1="416.7" y1="80.5" x2="416.7" y2="102.8"/>
			<line fill="none" stroke="#000000" stroke-width="2" stroke-miterlimit="10" x1="448.6" y1="125.3" x2="478.5" y2="125.3"/>
		</g>
		<g id="cell_10_">
			<rect x="404.3" y="159.9" fill="none" stroke="#000000" stroke-width="4" stroke-miterlimit="10" width="88.7" height="133.9"/>
			<rect x="409.2" y="214.4" fill="none" stroke="#000000" stroke-width="2" stroke-miterlimit="10" width="14.9" height="22.4"/>
			<ellipse fill="none" stroke="#000000" stroke-width="2" stroke-miterlimit="10" cx="412.7" cy="226.1" rx="2.5" ry="1.9"/>
			<line fill="none" stroke="#000000" stroke-width="2" stroke-miterlimit="10" x1="448.6" y1="278" x2="478.5" y2="278"/>
			<line fill="none" stroke="#000000" stroke-width="2" stroke-miterlimit="10" x1="448.6" y1="265.2" x2="478.5" y2="265.2"/>
			<line fill="none" stroke="#000000" stroke-width="2" stroke-miterlimit="10" x1="448.6" y1="271.8" x2="478.5" y2="271.8"/>
			<line fill="none" stroke="#000000" stroke-width="2" stroke-miterlimit="10" x1="452.4" y1="173.5" x2="479" y2="173.5"/>
			<line fill="none" stroke="#000000" stroke-width="2" stroke-miterlimit="10" x1="452.4" y1="184.3" x2="479" y2="184.3"/>
			<line fill="none" stroke="#000000" stroke-width="2" stroke-miterlimit="10" x1="416.7" y1="214.4" x2="416.7" y2="236.7"/>
			<line fill="none" stroke="#000000" stroke-width="2" stroke-miterlimit="10" x1="448.6" y1="259.1" x2="478.5" y2="259.1"/>
		</g>
		<g id="cell_9_">
			<rect x="404.3" y="292.3" fill="none" stroke="#000000" stroke-width="4" stroke-miterlimit="10" width="88.7" height="133.9"/>
			<rect x="409.2" y="346.7" fill="none" stroke="#000000" stroke-width="2" stroke-miterlimit="10" width="14.9" height="22.4"/>
			<ellipse fill="none" stroke="#000000" stroke-width="2" stroke-miterlimit="10" cx="412.7" cy="358.5" rx="2.5" ry="1.9"/>
			<line fill="none" stroke="#000000" stroke-width="2" stroke-miterlimit="10" x1="448.6" y1="410.4" x2="478.5" y2="410.4"/>
			<line fill="none" stroke="#000000" stroke-width="2" stroke-miterlimit="10" x1="448.6" y1="397.6" x2="478.5" y2="397.6"/>
			<line fill="none" stroke="#000000" stroke-width="2" stroke-miterlimit="10" x1="448.6" y1="404.2" x2="478.5" y2="404.2"/>
			<line fill="none" stroke="#000000" stroke-width="2" stroke-miterlimit="10" x1="452.4" y1="305.9" x2="479" y2="305.9"/>
			<line fill="none" stroke="#000000" stroke-width="2" stroke-miterlimit="10" x1="452.4" y1="316.6" x2="479" y2="316.6"/>
			<line fill="none" stroke="#000000" stroke-width="2" stroke-miterlimit="10" x1="416.7" y1="346.7" x2="416.7" y2="369.1"/>
			<line fill="none" stroke="#000000" stroke-width="2" stroke-miterlimit="10" x1="448.6" y1="391.5" x2="478.5" y2="391.5"/>
		</g>
		<g id="cell_8_">
			<rect x="404.3" y="426.1" fill="none" stroke="#000000" stroke-width="4" stroke-miterlimit="10" width="88.7" height="133.9"/>
			<rect x="409.2" y="480.6" fill="none" stroke="#000000" stroke-width="2" stroke-miterlimit="10" width="14.9" height="22.4"/>
			<ellipse fill="none" stroke="#000000" stroke-width="2" stroke-miterlimit="10" cx="412.7" cy="492.4" rx="2.5" ry="1.9"/>
			<line fill="none" stroke="#000000" stroke-width="2" stroke-miterlimit="10" x1="448.6" y1="544.3" x2="478.5" y2="544.3"/>
			<line fill="none" stroke="#000000" stroke-width="2" stroke-miterlimit="10" x1="448.6" y1="531.5" x2="478.5" y2="531.5"/>
			<line fill="none" stroke="#000000" stroke-width="2" stroke-miterlimit="10" x1="448.6" y1="538.1" x2="478.5" y2="538.1"/>
			<line fill="none" stroke="#000000" stroke-width="2" stroke-miterlimit="10" x1="452.4" y1="439.8" x2="479" y2="439.8"/>
			<line fill="none" stroke="#000000" stroke-width="2" stroke-miterlimit="10" x1="452.4" y1="450.5" x2="479" y2="450.5"/>
			<line fill="none" stroke="#000000" stroke-width="2" stroke-miterlimit="10" x1="416.7" y1="480.6" x2="416.7" y2="503"/>
			<line fill="none" stroke="#000000" stroke-width="2" stroke-miterlimit="10" x1="448.6" y1="525.4" x2="478.5" y2="525.4"/>
		</g>
	</g>
</g>
<g id="panel_1_">
	<rect x="4.5" y="11.5" fill="none" stroke="#000000" stroke-width="4" stroke-miterlimit="10" width="295.5" height="576"/>
	<g id="column_5_">
		<g id="cell_23_">
			<rect x="12" y="26" fill="none" stroke="#000000" stroke-width="4" stroke-miterlimit="10" width="88.7" height="133.9"/>
			<rect x="17" y="80.5" fill="none" stroke="#000000" stroke-width="2" stroke-miterlimit="10" width="14.9" height="22.4"/>
			<ellipse fill="none" stroke="#000000" stroke-width="2" stroke-miterlimit="10" cx="20.4" cy="92.2" rx="2.5" ry="1.9"/>
			<line fill="none" stroke="#000000" stroke-width="2" stroke-miterlimit="10" x1="56.3" y1="144.1" x2="86.2" y2="144.1"/>
			<line fill="none" stroke="#000000" stroke-width="2" stroke-miterlimit="10" x1="56.3" y1="131.4" x2="86.2" y2="131.4"/>
			<line fill="none" stroke="#000000" stroke-width="2" stroke-miterlimit="10" x1="56.3" y1="137.9" x2="86.2" y2="137.9"/>
			<line fill="none" stroke="#000000" stroke-width="2" stroke-miterlimit="10" x1="60.1" y1="39.7" x2="86.7" y2="39.7"/>
			<line fill="none" stroke="#000000" stroke-width="2" stroke-miterlimit="10" x1="60.1" y1="50.4" x2="86.7" y2="50.4"/>
			<line fill="none" stroke="#000000" stroke-width="2" stroke-miterlimit="10" x1="24.4" y1="80.5" x2="24.4" y2="102.8"/>
			<line fill="none" stroke="#000000" stroke-width="2" stroke-miterlimit="10" x1="56.3" y1="125.3" x2="86.2" y2="125.3"/>
		</g>
		<g id="cell_22_">
			<rect x="12" y="159.9" fill="none" stroke="#000000" stroke-width="4" stroke-miterlimit="10" width="88.7" height="133.9"/>
			<rect x="17" y="214.4" fill="none" stroke="#000000" stroke-width="2" stroke-miterlimit="10" width="14.9" height="22.4"/>
			<ellipse fill="none" stroke="#000000" stroke-width="2" stroke-miterlimit="10" cx="20.4" cy="226.1" rx="2.5" ry="1.9"/>
			<line fill="none" stroke="#000000" stroke-width="2" stroke-miterlimit="10" x1="56.3" y1="278" x2="86.2" y2="278"/>
			<line fill="none" stroke="#000000" stroke-width="2" stroke-miterlimit="10" x1="56.3" y1="265.2" x2="86.2" y2="265.2"/>
			<line fill="none" stroke="#000000" stroke-width="2" stroke-miterlimit="10" x1="56.3" y1="271.8" x2="86.2" y2="271.8"/>
			<line fill="none" stroke="#000000" stroke-width="2" stroke-miterlimit="10" x1="60.1" y1="173.5" x2="86.7" y2="173.5"/>
			<line fill="none" stroke="#000000" stroke-width="2" stroke-miterlimit="10" x1="60.1" y1="184.3" x2="86.7" y2="184.3"/>
			<line fill="none" stroke="#000000" stroke-width="2" stroke-miterlimit="10" x1="24.4" y1="214.4" x2="24.4" y2="236.7"/>
			<line fill="none" stroke="#000000" stroke-width="2" stroke-miterlimit="10" x1="56.3" y1="259.1" x2="86.2" y2="259.1"/>
		</g>
		<g id="cell_21_">
			<rect x="12" y="292.3" fill="none" stroke="#000000" stroke-width="4" stroke-miterlimit="10" width="88.7" height="133.9"/>
			<rect x="17" y="346.7" fill="none" stroke="#000000" stroke-width="2" stroke-miterlimit="10" width="14.9" height="22.4"/>
			<ellipse fill="none" stroke="#000000" stroke-width="2" stroke-miterlimit="10" cx="20.4" cy="358.5" rx="2.5" ry="1.9"/>
			<line fill="none" stroke="#000000" stroke-width="2" stroke-miterlimit="10" x1="56.3" y1="410.4" x2="86.2" y2="410.4"/>
			<line fill="none" stroke="#000000" stroke-width="2" stroke-miterlimit="10" x1="56.3" y1="397.6" x2="86.2" y2="397.6"/>
			<line fill="none" stroke="#000000" stroke-width="2" stroke-miterlimit="10" x1="56.3" y1="404.2" x2="86.2" y2="404.2"/>
			<line fill="none" stroke="#000000" stroke-width="2" stroke-miterlimit="10" x1="60.1" y1="305.9" x2="86.7" y2="305.9"/>
			<line fill="none" stroke="#000000" stroke-width="2" stroke-miterlimit="10" x1="60.1" y1="316.6" x2="86.7" y2="316.6"/>
			<line fill="none" stroke="#000000" stroke-width="2" stroke-miterlimit="10" x1="24.4" y1="346.7" x2="24.4" y2="369.1"/>
			<line fill="none" stroke="#000000" stroke-width="2" stroke-miterlimit="10" x1="56.3" y1="391.5" x2="86.2" y2="391.5"/>
		</g>
		<g id="cell_20_">
			<rect x="12" y="426.1" fill="none" stroke="#000000" stroke-width="4" stroke-miterlimit="10" width="88.7" height="133.9"/>
			<rect x="17" y="480.6" fill="none" stroke="#000000" stroke-width="2" stroke-miterlimit="10" width="14.9" height="22.4"/>
			<ellipse fill="none" stroke="#000000" stroke-width="2" stroke-miterlimit="10" cx="20.4" cy="492.4" rx="2.5" ry="1.9"/>
			<line fill="none" stroke="#000000" stroke-width="2" stroke-miterlimit="10" x1="56.3" y1="544.3" x2="86.2" y2="544.3"/>
			<line fill="none" stroke="#000000" stroke-width="2" stroke-miterlimit="10" x1="56.3" y1="531.5" x2="86.2" y2="531.5"/>
			<line fill="none" stroke="#000000" stroke-width="2" stroke-miterlimit="10" x1="56.3" y1="538.1" x2="86.2" y2="538.1"/>
			<line fill="none" stroke="#000000" stroke-width="2" stroke-miterlimit="10" x1="60.1" y1="439.8" x2="86.7" y2="439.8"/>
			<line fill="none" stroke="#000000" stroke-width="2" stroke-miterlimit="10" x1="60.1" y1="450.5" x2="86.7" y2="450.5"/>
			<line fill="none" stroke="#000000" stroke-width="2" stroke-miterlimit="10" x1="24.4" y1="480.6" x2="24.4" y2="503"/>
			<line fill="none" stroke="#000000" stroke-width="2" stroke-miterlimit="10" x1="56.3" y1="525.4" x2="86.2" y2="525.4"/>
		</g>
	</g>
	<g id="column_4_">
		<g id="cell_19_">
			<rect x="204.4" y="26" fill="none" stroke="#000000" stroke-width="4" stroke-miterlimit="10" width="88.7" height="133.9"/>
			<rect x="209.4" y="80.5" fill="none" stroke="#000000" stroke-width="2" stroke-miterlimit="10" width="14.9" height="22.4"/>
			<ellipse fill="none" stroke="#000000" stroke-width="2" stroke-miterlimit="10" cx="212.9" cy="92.2" rx="2.5" ry="1.9"/>
			<line fill="none" stroke="#000000" stroke-width="2" stroke-miterlimit="10" x1="248.7" y1="144.1" x2="278.6" y2="144.1"/>
			<line fill="none" stroke="#000000" stroke-width="2" stroke-miterlimit="10" x1="248.7" y1="131.4" x2="278.6" y2="131.4"/>
			<line fill="none" stroke="#000000" stroke-width="2" stroke-miterlimit="10" x1="248.7" y1="137.9" x2="278.6" y2="137.9"/>
			<line fill="none" stroke="#000000" stroke-width="2" stroke-miterlimit="10" x1="252.5" y1="39.7" x2="279.1" y2="39.7"/>
			<line fill="none" stroke="#000000" stroke-width="2" stroke-miterlimit="10" x1="252.5" y1="50.4" x2="279.1" y2="50.4"/>
			<line fill="none" stroke="#000000" stroke-width="2" stroke-miterlimit="10" x1="216.8" y1="80.5" x2="216.8" y2="102.8"/>
			<line fill="none" stroke="#000000" stroke-width="2" stroke-miterlimit="10" x1="248.7" y1="125.3" x2="278.6" y2="125.3"/>
		</g>
		<g id="cell_18_">
			<rect x="204.4" y="159.9" fill="none" stroke="#000000" stroke-width="4" stroke-miterlimit="10" width="88.7" height="133.9"/>
			<rect x="209.4" y="214.4" fill="none" stroke="#000000" stroke-width="2" stroke-miterlimit="10" width="14.9" height="22.4"/>
			<ellipse fill="none" stroke="#000000" stroke-width="2" stroke-miterlimit="10" cx="212.9" cy="226.1" rx="2.5" ry="1.9"/>
			<line fill="none" stroke="#000000" stroke-width="2" stroke-miterlimit="10" x1="248.7" y1="278" x2="278.6" y2="278"/>
			<line fill="none" stroke="#000000" stroke-width="2" stroke-miterlimit="10" x1="248.7" y1="265.2" x2="278.6" y2="265.2"/>
			<line fill="none" stroke="#000000" stroke-width="2" stroke-miterlimit="10" x1="248.7" y1="271.8" x2="278.6" y2="271.8"/>
			<line fill="none" stroke="#000000" stroke-width="2" stroke-miterlimit="10" x1="252.5" y1="173.5" x2="279.1" y2="173.5"/>
			<line fill="none" stroke="#000000" stroke-width="2" stroke-miterlimit="10" x1="252.5" y1="184.3" x2="279.1" y2="184.3"/>
			<line fill="none" stroke="#000000" stroke-width="2" stroke-miterlimit="10" x1="216.8" y1="214.4" x2="216.8" y2="236.7"/>
			<line fill="none" stroke="#000000" stroke-width="2" stroke-miterlimit="10" x1="248.7" y1="259.1" x2="278.6" y2="259.1"/>
		</g>
		<g id="cell_17_">
			<rect x="204.4" y="292.3" fill="none" stroke="#000000" stroke-width="4" stroke-miterlimit="10" width="88.7" height="133.9"/>
			<rect x="209.4" y="346.7" fill="none" stroke="#000000" stroke-width="2" stroke-miterlimit="10" width="14.9" height="22.4"/>
			<ellipse fill="none" stroke="#000000" stroke-width="2" stroke-miterlimit="10" cx="212.9" cy="358.5" rx="2.5" ry="1.9"/>
			<line fill="none" stroke="#000000" stroke-width="2" stroke-miterlimit="10" x1="248.7" y1="410.4" x2="278.6" y2="410.4"/>
			<line fill="none" stroke="#000000" stroke-width="2" stroke-miterlimit="10" x1="248.7" y1="397.6" x2="278.6" y2="397.6"/>
			<line fill="none" stroke="#000000" stroke-width="2" stroke-miterlimit="10" x1="248.7" y1="404.2" x2="278.6" y2="404.2"/>
			<line fill="none" stroke="#000000" stroke-width="2" stroke-miterlimit="10" x1="252.5" y1="305.9" x2="279.1" y2="305.9"/>
			<line fill="none" stroke="#000000" stroke-width="2" stroke-miterlimit="10" x1="252.5" y1="316.6" x2="279.1" y2="316.6"/>
			<line fill="none" stroke="#000000" stroke-width="2" stroke-miterlimit="10" x1="216.8" y1="346.7" x2="216.8" y2="369.1"/>
			<line fill="none" stroke="#000000" stroke-width="2" stroke-miterlimit="10" x1="248.7" y1="391.5" x2="278.6" y2="391.5"/>
		</g>
		<g id="cell_16_">
			<rect x="204.4" y="426.1" fill="none" stroke="#000000" stroke-width="4" stroke-miterlimit="10" width="88.7" height="133.9"/>
			<rect x="209.4" y="480.6" fill="none" stroke="#000000" stroke-width="2" stroke-miterlimit="10" width="14.9" height="22.4"/>
			<ellipse fill="none" stroke="#000000" stroke-width="2" stroke-miterlimit="10" cx="212.9" cy="492.4" rx="2.5" ry="1.9"/>
			<line fill="none" stroke="#000000" stroke-width="2" stroke-miterlimit="10" x1="248.7" y1="544.3" x2="278.6" y2="544.3"/>
			<line fill="none" stroke="#000000" stroke-width="2" stroke-miterlimit="10" x1="248.7" y1="531.5" x2="278.6" y2="531.5"/>
			<line fill="none" stroke="#000000" stroke-width="2" stroke-miterlimit="10" x1="248.7" y1="538.1" x2="278.6" y2="538.1"/>
			<line fill="none" stroke="#000000" stroke-width="2" stroke-miterlimit="10" x1="252.5" y1="439.8" x2="279.1" y2="439.8"/>
			<line fill="none" stroke="#000000" stroke-width="2" stroke-miterlimit="10" x1="252.5" y1="450.5" x2="279.1" y2="450.5"/>
			<line fill="none" stroke="#000000" stroke-width="2" stroke-miterlimit="10" x1="216.8" y1="480.6" x2="216.8" y2="503"/>
			<line fill="none" stroke="#000000" stroke-width="2" stroke-miterlimit="10" x1="248.7" y1="525.4" x2="278.6" y2="525.4"/>
		</g>
	</g>
	<g id="column_3_">
		<g id="cell_15_">
			<rect x="108.6" y="26" fill="none" stroke="#000000" stroke-width="4" stroke-miterlimit="10" width="88.7" height="133.9"/>
			<rect x="113.6" y="80.5" fill="none" stroke="#000000" stroke-width="2" stroke-miterlimit="10" width="14.9" height="22.4"/>
			<ellipse fill="none" stroke="#000000" stroke-width="2" stroke-miterlimit="10" cx="117.1" cy="92.2" rx="2.5" ry="1.9"/>
			<line fill="none" stroke="#000000" stroke-width="2" stroke-miterlimit="10" x1="152.9" y1="144.1" x2="182.8" y2="144.1"/>
			<line fill="none" stroke="#000000" stroke-width="2" stroke-miterlimit="10" x1="152.9" y1="131.4" x2="182.8" y2="131.4"/>
			<line fill="none" stroke="#000000" stroke-width="2" stroke-miterlimit="10" x1="152.9" y1="137.9" x2="182.8" y2="137.9"/>
			<line fill="none" stroke="#000000" stroke-width="2" stroke-miterlimit="10" x1="156.7" y1="39.7" x2="183.3" y2="39.7"/>
			<line fill="none" stroke="#000000" stroke-width="2" stroke-miterlimit="10" x1="156.7" y1="50.4" x2="183.3" y2="50.4"/>
			<line fill="none" stroke="#000000" stroke-width="2" stroke-miterlimit="10" x1="121.1" y1="80.5" x2="121.1" y2="102.8"/>
			<line fill="none" stroke="#000000" stroke-width="2" stroke-miterlimit="10" x1="152.9" y1="125.3" x2="182.8" y2="125.3"/>
		</g>
		<g id="cell_14_">
			<rect x="108.6" y="159.9" fill="none" stroke="#000000" stroke-width="4" stroke-miterlimit="10" width="88.7" height="133.9"/>
			<rect x="113.6" y="214.4" fill="none" stroke="#000000" stroke-width="2" stroke-miterlimit="10" width="14.9" height="22.4"/>
			<ellipse fill="none" stroke="#000000" stroke-width="2" stroke-miterlimit="10" cx="117.1" cy="226.1" rx="2.5" ry="1.9"/>
			<line fill="none" stroke="#000000" stroke-width="2" stroke-miterlimit="10" x1="152.9" y1="278" x2="182.8" y2="278"/>
			<line fill="none" stroke="#000000" stroke-width="2" stroke-miterlimit="10" x1="152.9" y1="265.2" x2="182.8" y2="265.2"/>
			<line fill="none" stroke="#000000" stroke-width="2" stroke-miterlimit="10" x1="152.9" y1="271.8" x2="182.8" y2="271.8"/>
			<line fill="none" stroke="#000000" stroke-width="2" stroke-miterlimit="10" x1="156.7" y1="173.5" x2="183.3" y2="173.5"/>
			<line fill="none" stroke="#000000" stroke-width="2" stroke-miterlimit="10" x1="156.7" y1="184.3" x2="183.3" y2="184.3"/>
			<line fill="none" stroke="#000000" stroke-width="2" stroke-miterlimit="10" x1="121.1" y1="214.4" x2="121.1" y2="236.7"/>
			<line fill="none" stroke="#000000" stroke-width="2" stroke-miterlimit="10" x1="152.9" y1="259.1" x2="182.8" y2="259.1"/>
		</g>
		<g id="cell_13_">
			<rect x="108.6" y="292.3" fill="none" stroke="#000000" stroke-width="4" stroke-miterlimit="10" width="88.7" height="133.9"/>
			<rect x="113.6" y="346.7" fill="none" stroke="#000000" stroke-width="2" stroke-miterlimit="10" width="14.9" height="22.4"/>
			<ellipse fill="none" stroke="#000000" stroke-width="2" stroke-miterlimit="10" cx="117.1" cy="358.5" rx="2.5" ry="1.9"/>
			<line fill="none" stroke="#000000" stroke-width="2" stroke-miterlimit="10" x1="152.9" y1="410.4" x2="182.8" y2="410.4"/>
			<line fill="none" stroke="#000000" stroke-width="2" stroke-miterlimit="10" x1="152.9" y1="397.6" x2="182.8" y2="397.6"/>
			<line fill="none" stroke="#000000" stroke-width="2" stroke-miterlimit="10" x1="152.9" y1="404.2" x2="182.8" y2="404.2"/>
			<line fill="none" stroke="#000000" stroke-width="2" stroke-miterlimit="10" x1="156.7" y1="305.9" x2="183.3" y2="305.9"/>
			<line fill="none" stroke="#000000" stroke-width="2" stroke-miterlimit="10" x1="156.7" y1="316.6" x2="183.3" y2="316.6"/>
			<line fill="none" stroke="#000000" stroke-width="2" stroke-miterlimit="10" x1="121.1" y1="346.7" x2="121.1" y2="369.1"/>
			<line fill="none" stroke="#000000" stroke-width="2" stroke-miterlimit="10" x1="152.9" y1="391.5" x2="182.8" y2="391.5"/>
		</g>
		<g id="cell_12_">
			<rect x="108.6" y="426.1" fill="none" stroke="#000000" stroke-width="4" stroke-miterlimit="10" width="88.7" height="133.9"/>
			<rect x="113.6" y="480.6" fill="none" stroke="#000000" stroke-width="2" stroke-miterlimit="10" width="14.9" height="22.4"/>
			<ellipse fill="none" stroke="#000000" stroke-width="2" stroke-miterlimit="10" cx="117.1" cy="492.4" rx="2.5" ry="1.9"/>
			<line fill="none" stroke="#000000" stroke-width="2" stroke-miterlimit="10" x1="152.9" y1="544.3" x2="182.8" y2="544.3"/>
			<line fill="none" stroke="#000000" stroke-width="2" stroke-miterlimit="10" x1="152.9" y1="531.5" x2="182.8" y2="531.5"/>
			<line fill="none" stroke="#000000" stroke-width="2" stroke-miterlimit="10" x1="152.9" y1="538.1" x2="182.8" y2="538.1"/>
			<line fill="none" stroke="#000000" stroke-width="2" stroke-miterlimit="10" x1="156.7" y1="439.8" x2="183.3" y2="439.8"/>
			<line fill="none" stroke="#000000" stroke-width="2" stroke-miterlimit="10" x1="156.7" y1="450.5" x2="183.3" y2="450.5"/>
			<line fill="none" stroke="#000000" stroke-width="2" stroke-miterlimit="10" x1="121.1" y1="480.6" x2="121.1" y2="503"/>
			<line fill="none" stroke="#000000" stroke-width="2" stroke-miterlimit="10" x1="152.9" y1="525.4" x2="182.8" y2="525.4"/>
		</g>
	</g>
</g>
</svg>
